<svg xmlns="http://www.w3.org/2000/svg" version="1.1" xmlns:xlink="http://www.w3.org/1999/xlink" xmlns:svgjs="http://svgjs.dev/svgjs" viewBox="0 0 20.415815199364047 23.260822412406398"><g transform="matrix(1,0,0,1,1.8152222237054616,17.57055061870094)"><g><path d=" M 1.4003428710937502 0.018000000000000016 L 1.2983428710937501 0.018000000000000016 L 1.2983428710937501 1.068 L 1.3643428710937502 1.068 L 1.3643428710937502 0.21150000000000002 L 1.3703428710937502 0.21150000000000002 L 1.8338428710937502 1.086 L 1.8608428710937504 1.086 L 2.33484287109375 0.21750000000000003 L 2.3408428710937503 0.21750000000000003 L 2.3408428710937503 1.068 L 2.47734287109375 1.068 L 2.47734287109375 0.018000000000000016 L 2.3738428710937503 0.018000000000000016 L 1.88784287109375 0.9195000000000001 L 1.8818428710937503 0.9195000000000001 L 1.4003428710937502 0.018000000000000016 M 2.9454943359375 0.018000000000000016 L 2.9454943359375 1.068 L 3.6234943359375 1.068 L 3.6234943359375 0.9855 L 3.0819943359375 0.9855 L 3.0819943359375 0.546 L 3.5469943359375 0.546 L 3.5469943359375 0.4770000000000001 L 3.0819943359375 0.4770000000000001 L 3.0819943359375 0.10050000000000003 L 3.6234943359375 0.10050000000000003 L 3.6234943359375 0.018000000000000016 L 2.9454943359375 0.018000000000000016 M 4.802628955078125 0.018000000000000016 L 4.802628955078125 0.8205 L 4.796628955078125 0.8205 L 3.964128955078125 0 L 3.9566289550781253 0 L 3.9566289550781253 1.068 L 4.025628955078125 1.068 L 4.025628955078125 0.26550000000000007 L 4.0316289550781255 0.26550000000000007 L 4.864128955078125 1.086 L 4.871628955078125 1.086 L 4.871628955078125 0.018000000000000016 L 4.802628955078125 0.018000000000000016 M 5.728242333984376 1.068 L 5.728242333984376 0.10050000000000003 L 6.130242333984376 0.10050000000000003 L 6.130242333984376 0.018000000000000016 L 5.189742333984376 0.018000000000000016 L 5.189742333984376 0.10050000000000003 L 5.591742333984376 0.10050000000000003 L 5.591742333984376 1.068 L 5.728242333984376 1.068 M 6.8518879394531265 0.7590000000000001 L 6.995887939453126 1.068 L 7.141387939453126 1.068 L 6.652387939453126 0.018000000000000016 L 6.577387939453126 0.018000000000000016 L 6.133387939453126 1.068 L 6.202387939453126 1.068 L 6.334387939453126 0.7590000000000001 L 6.8518879394531265 0.7590000000000001 M 6.820387939453126 0.6915 L 6.362887939453126 0.6915 L 6.578887939453126 0.18600000000000005 L 6.584887939453126 0.18600000000000005 L 6.820387939453126 0.6915 M 7.474529882812501 1.068 L 7.474529882812501 0.018000000000000016 L 7.611029882812501 0.018000000000000016 L 7.611029882812501 0.9855 L 8.152529882812502 0.9855 L 8.152529882812502 1.068 L 7.474529882812501 1.068 M 9.255277880859376 0.546 L 9.883777880859377 0.546 L 9.883777880859377 1.068 L 10.020277880859377 1.068 L 10.020277880859377 0.018000000000000016 L 9.883777880859377 0.018000000000000016 L 9.883777880859377 0.4770000000000001 L 9.255277880859376 0.4770000000000001 L 9.255277880859376 0.018000000000000016 L 9.118777880859376 0.018000000000000016 L 9.118777880859376 1.068 L 9.255277880859376 1.068 L 9.255277880859376 0.546 M 10.488433007812501 0.018000000000000016 L 10.488433007812501 1.068 L 11.166433007812502 1.068 L 11.166433007812502 0.9855 L 10.624933007812501 0.9855 L 10.624933007812501 0.546 L 11.089933007812501 0.546 L 11.089933007812501 0.4770000000000001 L 10.624933007812501 0.4770000000000001 L 10.624933007812501 0.10050000000000003 L 11.166433007812502 0.10050000000000003 L 11.166433007812502 0.018000000000000016 L 10.488433007812501 0.018000000000000016 M 12.083067626953127 0.7590000000000001 L 12.227067626953128 1.068 L 12.372567626953128 1.068 L 11.883567626953127 0.018000000000000016 L 11.808567626953128 0.018000000000000016 L 11.364567626953127 1.068 L 11.433567626953128 1.068 L 11.565567626953127 0.7590000000000001 L 12.083067626953127 0.7590000000000001 M 12.051567626953126 0.6915 L 11.594067626953127 0.6915 L 11.810067626953128 0.18600000000000005 L 11.816067626953126 0.18600000000000005 L 12.051567626953126 0.6915 M 12.705709570312502 1.068 L 12.705709570312502 0.018000000000000016 L 12.842209570312502 0.018000000000000016 L 12.842209570312502 0.9855 L 13.383709570312503 0.9855 L 13.383709570312503 1.068 L 12.705709570312502 1.068 M 13.865384472656253 1.068 L 13.865384472656253 0.10050000000000003 L 14.267384472656252 0.10050000000000003 L 14.267384472656252 0.018000000000000016 L 13.326884472656252 0.018000000000000016 L 13.326884472656252 0.10050000000000003 L 13.728884472656253 0.10050000000000003 L 13.728884472656253 1.068 L 13.865384472656253 1.068 M 14.722022753906252 0.546 L 15.350522753906253 0.546 L 15.350522753906253 1.068 L 15.487022753906253 1.068 L 15.487022753906253 0.018000000000000016 L 15.350522753906253 0.018000000000000016 L 15.350522753906253 0.4770000000000001 L 14.722022753906252 0.4770000000000001 L 14.722022753906252 0.018000000000000016 L 14.585522753906252 0.018000000000000016 L 14.585522753906252 1.068 L 14.722022753906252 1.068 L 14.722022753906252 0.546 M 0.18 1.6199999999999999 L 0.18 2.67 L 0.858 2.67 L 0.858 2.5875 L 0.3165 2.5875 L 0.3165 2.1479999999999997 L 0.7815 2.1479999999999997 L 0.7815 2.0789999999999997 L 0.3165 2.0789999999999997 L 0.3165 1.7025 L 0.858 1.7025 L 0.858 1.6199999999999999 L 0.18 1.6199999999999999 M 1.2061346191406253 2.67 L 1.2061346191406253 1.6199999999999999 L 1.5511346191406252 1.6199999999999999 Q 1.675634619140625 1.6199999999999999 1.7791346191406252 1.6597499999999998 Q 1.8826346191406254 1.6995 1.956884619140625 1.76925 Q 2.031134619140625 1.839 2.0723846191406254 1.935 Q 2.1136346191406252 2.0309999999999997 2.1136346191406252 2.142 Q 2.1136346191406252 2.2575 2.0708846191406254 2.35425 Q 2.0281346191406255 2.451 1.9538846191406252 2.5215 Q 1.8796346191406252 2.592 1.780634619140625 2.631 Q 1.6816346191406253 2.67 1.5691346191406252 2.67 L 1.2061346191406253 2.67 M 1.3426346191406253 2.604 L 1.5076346191406251 2.604 Q 1.6306346191406251 2.604 1.7168846191406253 2.56275 Q 1.8031346191406252 2.5215 1.8586346191406253 2.4555 Q 1.9141346191406252 2.3895 1.9396346191406253 2.30775 Q 1.9651346191406254 2.226 1.9651346191406254 2.145 Q 1.9651346191406254 2.0549999999999997 1.9351346191406251 1.97175 Q 1.9051346191406253 1.8885 1.8473846191406254 1.8247499999999999 Q 1.7896346191406252 1.761 1.7041346191406253 1.7235 Q 1.6186346191406251 1.686 1.5076346191406251 1.686 L 1.3426346191406253 1.686 L 1.3426346191406253 2.604 M 2.3868065917968755 1.6199999999999999 L 2.3868065917968755 2.2649999999999997 Q 2.3868065917968755 2.3265 2.3988065917968755 2.40075 Q 2.4108065917968755 2.475 2.4558065917968754 2.53875 Q 2.5008065917968754 2.6025 2.589306591796875 2.64525 Q 2.6778065917968754 2.6879999999999997 2.8308065917968754 2.6879999999999997 Q 2.9268065917968755 2.6879999999999997 3.0010565917968757 2.658 Q 3.0753065917968754 2.628 3.1255565917968755 2.5755 Q 3.175806591796875 2.523 3.2013065917968753 2.4532499999999997 Q 3.2268065917968753 2.3834999999999997 3.2268065917968753 2.304 L 3.2268065917968753 1.6199999999999999 L 3.1608065917968755 1.6199999999999999 L 3.1608065917968755 2.2544999999999997 Q 3.1608065917968755 2.2875 3.1593065917968755 2.32125 Q 3.1578065917968754 2.355 3.1503065917968756 2.38875 Q 3.1428065917968753 2.4225 3.1270565917968756 2.4555 Q 3.1113065917968754 2.4885 3.081306591796875 2.5215 Q 3.0273065917968753 2.58 2.9598065917968754 2.601 Q 2.8923065917968755 2.622 2.8188065917968754 2.622 Q 2.7558065917968753 2.622 2.707056591796875 2.6025 Q 2.6583065917968756 2.5829999999999997 2.6148065917968752 2.544 Q 2.5803065917968753 2.514 2.5623065917968755 2.484 Q 2.5443065917968752 2.4539999999999997 2.5353065917968753 2.42475 Q 2.5263065917968754 2.3954999999999997 2.5248065917968754 2.3655 Q 2.5233065917968753 2.3354999999999997 2.5233065917968753 2.3055 L 2.5233065917968753 1.6199999999999999 L 2.3868065917968755 1.6199999999999999 M 4.518412646484376 2.4764999999999997 Q 4.365412646484375 2.6205 4.1554126464843755 2.6205 Q 4.0384126464843755 2.6205 3.9484126464843756 2.58 Q 3.8584126464843758 2.5395 3.7984126464843757 2.472 Q 3.7384126464843757 2.4045 3.7076626464843754 2.316 Q 3.6769126464843755 2.2275 3.6769126464843755 2.1315 Q 3.6769126464843755 2.0295 3.7091626464843754 1.94475 Q 3.7414126464843758 1.8599999999999999 3.7999126464843758 1.7984999999999998 Q 3.8584126464843758 1.7369999999999999 3.9386626464843757 1.7025 Q 4.018912646484376 1.668 4.113412646484376 1.668 Q 4.177912646484375 1.668 4.231162646484376 1.6829999999999998 Q 4.284412646484376 1.698 4.325662646484376 1.722 Q 4.3669126464843755 1.746 4.393162646484376 1.7767499999999998 Q 4.419412646484376 1.8074999999999999 4.429912646484375 1.839 L 4.540912646484376 1.839 Q 4.518412646484376 1.7879999999999998 4.4831626464843755 1.7445 Q 4.447912646484376 1.701 4.395412646484376 1.6695 Q 4.3429126464843755 1.638 4.2724126464843755 1.6199999999999999 Q 4.2019126464843755 1.6019999999999999 4.111912646484376 1.6019999999999999 Q 3.9814126464843755 1.6019999999999999 3.8741626464843755 1.6395 Q 3.7669126464843754 1.677 3.6904126464843756 1.74675 Q 3.6139126464843754 1.8165 3.5719126464843756 1.91475 Q 3.5299126464843757 2.013 3.5299126464843757 2.1345 Q 3.5299126464843757 2.2395 3.5636626464843757 2.33925 Q 3.5974126464843756 2.439 3.6679126464843756 2.51625 Q 3.7384126464843757 2.5935 3.8479126464843754 2.6407499999999997 Q 3.9574126464843755 2.6879999999999997 4.1089126464843755 2.6879999999999997 Q 4.204912646484376 2.6879999999999997 4.280662646484376 2.67 Q 4.356412646484376 2.652 4.4126626464843755 2.62575 Q 4.468912646484376 2.5995 4.5064126464843755 2.5695 Q 4.543912646484376 2.5395 4.563412646484376 2.517 L 4.518412646484376 2.4764999999999997 M 5.465020898437501 2.3609999999999998 L 5.6090208984375005 2.67 L 5.754520898437501 2.67 L 5.265520898437501 1.6199999999999999 L 5.190520898437501 1.6199999999999999 L 4.746520898437501 2.67 L 4.815520898437501 2.67 L 4.947520898437501 2.3609999999999998 L 5.465020898437501 2.3609999999999998 M 5.433520898437501 2.2935 L 4.9760208984375005 2.2935 L 5.192020898437501 1.7879999999999998 L 5.198020898437501 1.7879999999999998 L 5.433520898437501 2.2935 M 6.296170166015626 2.67 L 6.296170166015626 1.7025 L 6.698170166015626 1.7025 L 6.698170166015626 1.6199999999999999 L 5.757670166015626 1.6199999999999999 L 5.757670166015626 1.7025 L 6.159670166015626 1.7025 L 6.159670166015626 2.67 L 6.296170166015626 2.67 M 7.076308447265626 1.6199999999999999 L 7.076308447265626 2.67 L 7.212808447265626 2.67 L 7.212808447265626 1.6199999999999999 L 7.076308447265626 1.6199999999999999 M 7.6359745605468765 2.145 Q 7.6359745605468765 2.229 7.668224560546876 2.32425 Q 7.700474560546876 2.4194999999999998 7.769474560546876 2.5004999999999997 Q 7.838474560546876 2.5815 7.944974560546877 2.63475 Q 8.051474560546877 2.6879999999999997 8.199974560546876 2.6879999999999997 Q 8.300474560546876 2.6879999999999997 8.382224560546877 2.66325 Q 8.463974560546877 2.6385 8.529224560546876 2.5965 Q 8.594474560546876 2.5545 8.642474560546876 2.4997499999999997 Q 8.690474560546877 2.445 8.721224560546876 2.3842499999999998 Q 8.751974560546877 2.3235 8.767724560546876 2.262 Q 8.783474560546876 2.2005 8.783474560546876 2.145 Q 8.783474560546876 2.061 8.748974560546877 1.9657499999999999 Q 8.714474560546876 1.8704999999999998 8.642474560546876 1.7894999999999999 Q 8.570474560546877 1.7085 8.460224560546877 1.6552499999999999 Q 8.349974560546876 1.6019999999999999 8.199974560546876 1.6019999999999999 Q 8.051474560546877 1.6019999999999999 7.944974560546877 1.6544999999999999 Q 7.838474560546876 1.7069999999999999 7.769474560546876 1.7872499999999998 Q 7.700474560546876 1.8675 7.668224560546876 1.9634999999999998 Q 7.6359745605468765 2.0595 7.6359745605468765 2.145 M 7.782974560546877 2.145 Q 7.782974560546877 2.04 7.815224560546876 1.9522499999999998 Q 7.8474745605468765 1.8645 7.903724560546876 1.8014999999999999 Q 7.959974560546876 1.7385 8.036474560546877 1.70325 Q 8.112974560546876 1.668 8.202974560546876 1.668 Q 8.291474560546876 1.668 8.370224560546877 1.70325 Q 8.448974560546876 1.7385 8.508224560546877 1.8014999999999999 Q 8.567474560546877 1.8645 8.601974560546877 1.9522499999999998 Q 8.636474560546876 2.04 8.636474560546876 2.145 Q 8.636474560546876 2.25 8.601974560546877 2.3377499999999998 Q 8.567474560546877 2.4255 8.508224560546877 2.4885 Q 8.448974560546876 2.5515 8.370224560546877 2.58675 Q 8.291474560546876 2.622 8.202974560546876 2.622 Q 8.112974560546876 2.622 8.036474560546877 2.58675 Q 7.959974560546876 2.5515 7.903724560546876 2.4885 Q 7.8474745605468765 2.4255 7.815224560546876 2.3377499999999998 Q 7.782974560546877 2.25 7.782974560546877 2.145 M 9.992609912109376 1.6199999999999999 L 9.992609912109376 2.4225 L 9.986609912109376 2.4225 L 9.154109912109377 1.6019999999999999 L 9.146609912109376 1.6019999999999999 L 9.146609912109376 2.67 L 9.215609912109377 2.67 L 9.215609912109377 1.8675 L 9.221609912109377 1.8675 L 10.054109912109377 2.6879999999999997 L 10.061609912109377 2.6879999999999997 L 10.061609912109377 1.6199999999999999 L 9.992609912109376 1.6199999999999999 M 12.046336669921876 2.4764999999999997 Q 11.893336669921878 2.6205 11.683336669921877 2.6205 Q 11.566336669921878 2.6205 11.476336669921876 2.58 Q 11.386336669921876 2.5395 11.326336669921877 2.472 Q 11.266336669921877 2.4045 11.235586669921878 2.316 Q 11.204836669921876 2.2275 11.204836669921876 2.1315 Q 11.204836669921876 2.0295 11.237086669921878 1.94475 Q 11.269336669921877 1.8599999999999999 11.327836669921878 1.7984999999999998 Q 11.386336669921876 1.7369999999999999 11.466586669921877 1.7025 Q 11.546836669921877 1.668 11.641336669921877 1.668 Q 11.705836669921878 1.668 11.759086669921876 1.6829999999999998 Q 11.812336669921876 1.698 11.853586669921876 1.722 Q 11.894836669921878 1.746 11.921086669921877 1.7767499999999998 Q 11.947336669921876 1.8074999999999999 11.957836669921877 1.839 L 12.068836669921877 1.839 Q 12.046336669921876 1.7879999999999998 12.011086669921877 1.7445 Q 11.975836669921877 1.701 11.923336669921877 1.6695 Q 11.870836669921877 1.638 11.800336669921878 1.6199999999999999 Q 11.729836669921877 1.6019999999999999 11.639836669921877 1.6019999999999999 Q 11.509336669921877 1.6019999999999999 11.402086669921877 1.6395 Q 11.294836669921876 1.677 11.218336669921877 1.74675 Q 11.141836669921878 1.8165 11.099836669921878 1.91475 Q 11.057836669921876 2.013 11.057836669921876 2.1345 Q 11.057836669921876 2.2395 11.091586669921877 2.33925 Q 11.125336669921877 2.439 11.195836669921876 2.51625 Q 11.266336669921877 2.5935 11.375836669921878 2.6407499999999997 Q 11.485336669921876 2.6879999999999997 11.636836669921877 2.6879999999999997 Q 11.732836669921877 2.6879999999999997 11.808586669921876 2.67 Q 11.884336669921877 2.652 11.940586669921878 2.62575 Q 11.996836669921876 2.5995 12.034336669921878 2.5695 Q 12.071836669921877 2.5395 12.091336669921876 2.517 L 12.046336669921876 2.4764999999999997 M 12.304444921875001 2.145 Q 12.304444921875001 2.229 12.336694921875003 2.32425 Q 12.368944921875002 2.4194999999999998 12.437944921875003 2.5004999999999997 Q 12.506944921875002 2.5815 12.613444921875002 2.63475 Q 12.719944921875003 2.6879999999999997 12.868444921875001 2.6879999999999997 Q 12.968944921875002 2.6879999999999997 13.050694921875003 2.66325 Q 13.132444921875003 2.6385 13.197694921875001 2.5965 Q 13.262944921875002 2.5545 13.310944921875002 2.4997499999999997 Q 13.358944921875002 2.445 13.389694921875002 2.3842499999999998 Q 13.420444921875003 2.3235 13.436194921875002 2.262 Q 13.451944921875002 2.2005 13.451944921875002 2.145 Q 13.451944921875002 2.061 13.417444921875003 1.9657499999999999 Q 13.382944921875001 1.8704999999999998 13.310944921875002 1.7894999999999999 Q 13.238944921875003 1.7085 13.128694921875002 1.6552499999999999 Q 13.018444921875002 1.6019999999999999 12.868444921875001 1.6019999999999999 Q 12.719944921875003 1.6019999999999999 12.613444921875002 1.6544999999999999 Q 12.506944921875002 1.7069999999999999 12.437944921875003 1.7872499999999998 Q 12.368944921875002 1.8675 12.336694921875003 1.9634999999999998 Q 12.304444921875001 2.0595 12.304444921875001 2.145 M 12.451444921875002 2.145 Q 12.451444921875002 2.04 12.483694921875003 1.9522499999999998 Q 12.515944921875002 1.8645 12.572194921875003 1.8014999999999999 Q 12.628444921875001 1.7385 12.704944921875002 1.70325 Q 12.781444921875002 1.668 12.871444921875002 1.668 Q 12.959944921875001 1.668 13.038694921875003 1.70325 Q 13.117444921875002 1.7385 13.176694921875002 1.8014999999999999 Q 13.235944921875003 1.8645 13.270444921875002 1.9522499999999998 Q 13.304944921875002 2.04 13.304944921875002 2.145 Q 13.304944921875002 2.25 13.270444921875002 2.3377499999999998 Q 13.235944921875003 2.4255 13.176694921875002 2.4885 Q 13.117444921875002 2.5515 13.038694921875003 2.58675 Q 12.959944921875001 2.622 12.871444921875002 2.622 Q 12.781444921875002 2.622 12.704944921875002 2.58675 Q 12.628444921875001 2.5515 12.572194921875003 2.4885 Q 12.515944921875002 2.4255 12.483694921875003 2.3377499999999998 Q 12.451444921875002 2.25 12.451444921875002 2.145 M 13.815080273437502 1.6199999999999999 L 13.815080273437502 2.67 L 13.951580273437502 2.67 L 13.951580273437502 2.2065 L 14.017580273437503 2.2065 Q 14.059580273437502 2.2065 14.087330273437502 2.214 Q 14.115080273437503 2.2215 14.137580273437502 2.2395 Q 14.160080273437503 2.2575 14.179580273437502 2.286 Q 14.199080273437502 2.3145 14.226080273437502 2.3565 L 14.344580273437503 2.532 Q 14.367080273437502 2.5665 14.388830273437502 2.5949999999999998 Q 14.410580273437501 2.6235 14.436080273437502 2.64375 Q 14.461580273437502 2.664 14.493830273437503 2.6759999999999997 Q 14.526080273437502 2.6879999999999997 14.571080273437502 2.6879999999999997 Q 14.604080273437502 2.6879999999999997 14.625080273437502 2.685 Q 14.646080273437502 2.682 14.667080273437502 2.67 L 14.667080273437502 2.6145 Q 14.659580273437502 2.616 14.652080273437502 2.61675 Q 14.644580273437501 2.6174999999999997 14.637080273437503 2.6174999999999997 Q 14.605580273437502 2.6174999999999997 14.581580273437503 2.6085 Q 14.557580273437502 2.5995 14.536580273437503 2.5822499999999997 Q 14.515580273437502 2.565 14.496080273437503 2.54025 Q 14.476580273437502 2.5155 14.455580273437501 2.484 Q 14.392580273437503 2.3925 14.358080273437503 2.3377499999999998 Q 14.323580273437502 2.283 14.303330273437503 2.253 Q 14.283080273437502 2.223 14.270330273437501 2.2095 Q 14.257580273437503 2.1959999999999997 14.239580273437502 2.187 L 14.224580273437502 2.1795 L 14.224580273437502 2.1734999999999998 Q 14.296580273437502 2.169 14.348330273437503 2.142 Q 14.400080273437503 2.1149999999999998 14.433080273437502 2.0745 Q 14.466080273437502 2.034 14.481080273437502 1.9867499999999998 Q 14.496080273437503 1.9394999999999998 14.496080273437503 1.8944999999999999 Q 14.496080273437503 1.8539999999999999 14.480330273437502 1.806 Q 14.464580273437502 1.758 14.426330273437502 1.7167499999999998 Q 14.388080273437502 1.6755 14.322080273437502 1.6477499999999998 Q 14.256080273437503 1.6199999999999999 14.155580273437502 1.6199999999999999 L 13.815080273437502 1.6199999999999999 M 13.951580273437502 1.686 L 14.103080273437502 1.686 Q 14.160080273437503 1.686 14.205830273437503 1.7025 Q 14.251580273437503 1.7189999999999999 14.284580273437502 1.7482499999999999 Q 14.317580273437502 1.7774999999999999 14.334830273437502 1.818 Q 14.352080273437503 1.8584999999999998 14.352080273437503 1.9064999999999999 Q 14.352080273437503 1.947 14.336330273437502 1.9882499999999999 Q 14.320580273437502 2.0295 14.289080273437502 2.06325 Q 14.257580273437503 2.097 14.211830273437503 2.118 Q 14.166080273437503 2.139 14.106080273437502 2.139 L 13.951580273437502 2.139 L 13.951580273437502 1.686 M 15.136756640625002 2.2319999999999998 Q 15.175756640625002 2.2424999999999997 15.220756640625002 2.24925 Q 15.265756640625003 2.256 15.319756640625002 2.256 Q 15.411256640625002 2.256 15.481756640625003 2.2305 Q 15.552256640625002 2.205 15.599506640625002 2.16075 Q 15.646756640625002 2.1165 15.670756640625003 2.05875 Q 15.694756640625002 2.001 15.694756640625002 1.935 Q 15.694756640625002 1.8719999999999999 15.673756640625003 1.81425 Q 15.652756640625002 1.7565 15.610006640625002 1.7137499999999999 Q 15.567256640625002 1.6709999999999998 15.502756640625002 1.6455 Q 15.438256640625003 1.6199999999999999 15.351256640625003 1.6199999999999999 L 15.000256640625002 1.6199999999999999 L 15.000256640625002 2.67 L 15.136756640625002 2.67 L 15.136756640625002 2.2319999999999998 M 15.136756640625002 1.686 L 15.294256640625003 1.686 Q 15.357256640625003 1.686 15.405256640625002 1.7085 Q 15.453256640625003 1.7309999999999999 15.484756640625003 1.76775 Q 15.516256640625002 1.8045 15.532006640625003 1.85025 Q 15.547756640625003 1.896 15.547756640625003 1.9409999999999998 Q 15.547756640625003 1.9845 15.533506640625003 2.02875 Q 15.519256640625002 2.073 15.487756640625003 2.109 Q 15.456256640625002 2.145 15.408256640625002 2.1675 Q 15.360256640625003 2.19 15.292756640625003 2.19 Q 15.246256640625003 2.19 15.207256640625003 2.18625 Q 15.168256640625003 2.1825 15.136756640625002 2.1705 L 15.136756640625002 1.686 M 15.903370751953128 2.4045 Q 15.906370751953128 2.469 15.937120751953127 2.5215 Q 15.967870751953127 2.574 16.021120751953127 2.61075 Q 16.07437075195313 2.6475 16.14637075195313 2.66775 Q 16.218370751953127 2.6879999999999997 16.303870751953127 2.6879999999999997 Q 16.390870751953127 2.6879999999999997 16.460620751953126 2.667 Q 16.53037075195313 2.646 16.579870751953127 2.6069999999999998 Q 16.62937075195313 2.568 16.656370751953126 2.5124999999999997 Q 16.683370751953127 2.457 16.683370751953127 2.3895 Q 16.683370751953127 2.2965 16.63687075195313 2.23725 Q 16.590370751953127 2.178 16.52062075195313 2.1382499999999998 Q 16.45087075195313 2.0985 16.369120751953126 2.0715 Q 16.287370751953127 2.0444999999999998 16.217620751953127 2.0145 Q 16.14787075195313 1.9845 16.101370751953127 1.9455 Q 16.05487075195313 1.9064999999999999 16.05487075195313 1.8419999999999999 Q 16.05487075195313 1.806 16.07062075195313 1.7744999999999997 Q 16.086370751953126 1.7429999999999999 16.117120751953127 1.71975 Q 16.14787075195313 1.6965 16.192870751953127 1.6822499999999998 Q 16.23787075195313 1.668 16.296370751953127 1.668 Q 16.393870751953127 1.668 16.462120751953126 1.70925 Q 16.53037075195313 1.7505 16.54237075195313 1.839 L 16.644370751953126 1.839 Q 16.63537075195313 1.7834999999999999 16.603870751953128 1.73925 Q 16.572370751953127 1.6949999999999998 16.52437075195313 1.66425 Q 16.476370751953127 1.6335 16.415620751953128 1.6177499999999998 Q 16.35487075195313 1.6019999999999999 16.288870751953127 1.6019999999999999 Q 16.219870751953128 1.6019999999999999 16.15762075195313 1.6199999999999999 Q 16.095370751953126 1.638 16.048120751953128 1.6724999999999999 Q 16.000870751953126 1.7069999999999999 15.973120751953127 1.7595 Q 15.945370751953128 1.8119999999999998 15.945370751953128 1.8795 Q 15.945370751953128 1.968 15.990370751953128 2.022 Q 16.035370751953128 2.076 16.103620751953127 2.112 Q 16.17187075195313 2.1479999999999997 16.25137075195313 2.1734999999999998 Q 16.330870751953128 2.199 16.399120751953127 2.2312499999999997 Q 16.467370751953126 2.2635 16.512370751953128 2.31 Q 16.557370751953126 2.3565 16.557370751953126 2.4345 Q 16.557370751953126 2.532 16.486120751953127 2.577 Q 16.414870751953128 2.622 16.296370751953127 2.622 Q 16.201870751953127 2.622 16.14487075195313 2.59725 Q 16.087870751953126 2.5725 16.05787075195313 2.538 Q 16.027870751953127 2.5035 16.017370751953127 2.4667499999999998 Q 16.006870751953127 2.4299999999999997 16.005370751953127 2.4045 L 15.903370751953128 2.4045" fill="#8a615c" fill-rule="nonzero"></path></g><g><path d=" M 0.9253921569580084 3.5206903199999995 Q 0.9578949069580083 3.5595350699999995 0.9578949069580083 3.6110638199999996 Q 0.9578949069580083 3.6530795699999996 0.9368870319580083 3.6867714449999993 Q 0.9158791569580084 3.7204633199999995 0.8754489069580084 3.7398856949999995 Q 0.8350186569580084 3.7593080699999994 0.7787334069580083 3.7593080699999994 L 0.5868879069580084 3.7593080699999994 L 0.5868879069580084 3.2051758199999996 L 0.7731841569580084 3.2051758199999996 Q 0.8572156569580083 3.2051758199999996 0.9012132819580083 3.2440205699999995 Q 0.9452109069580084 3.2828653199999995 0.9452109069580084 3.3446998199999993 Q 0.9452109069580084 3.3962285699999994 0.9174646569580083 3.4283349449999996 Q 0.8897184069580084 3.4604413199999993 0.8461171569580084 3.4731253199999994 Q 0.8928894069580083 3.4818455699999995 0.9253921569580084 3.5206903199999995 M 0.6423804069580084 3.4501355699999996 L 0.7715986569580083 3.4501355699999996 Q 0.8278839069580084 3.4501355699999996 0.8584047819580083 3.4235784449999995 Q 0.8889256569580084 3.3970213199999995 0.8889256569580084 3.3502490699999994 Q 0.8889256569580084 3.3042695699999993 0.8584047819580083 3.2781088199999995 Q 0.8278839069580084 3.2519480699999996 0.7692204069580084 3.2519480699999996 L 0.6423804069580084 3.2519480699999996 L 0.6423804069580084 3.4501355699999996 M 0.8687105319580084 3.6839968199999995 Q 0.9024024069580083 3.6554578199999996 0.9024024069580083 3.6055145699999995 Q 0.9024024069580083 3.5555713199999994 0.8671250319580084 3.5258431949999993 Q 0.8318476569580083 3.4961150699999997 0.7723914069580083 3.4961150699999997 L 0.6423804069580084 3.4961150699999997 L 0.6423804069580084 3.7125358199999994 L 0.7747696569580084 3.7125358199999994 Q 0.8350186569580084 3.7125358199999994 0.8687105319580084 3.6839968199999995 M 1.3684481323242192 3.7593080699999994 L 1.2313023823242193 3.5278250699999996 L 1.1290376323242193 3.5278250699999996 L 1.1290376323242193 3.7593080699999994 L 1.0735451323242193 3.7593080699999994 L 1.0735451323242193 3.2051758199999996 L 1.2400226323242194 3.2051758199999996 Q 1.3327743823242193 3.2051758199999996 1.3807357573242194 3.2495698199999996 Q 1.4286971323242192 3.2939638199999997 1.4286971323242192 3.3661040699999996 Q 1.4286971323242192 3.4263530699999993 1.3942125073242193 3.4687651949999996 Q 1.3597278823242194 3.5111773199999994 1.2923441323242193 3.5238613199999995 L 1.4350391323242193 3.7593080699999994 L 1.3684481323242192 3.7593080699999994 M 1.1290376323242193 3.4826383199999995 L 1.2408153823242194 3.4826383199999995 Q 1.3058208823242192 3.4826383199999995 1.3387200073242194 3.4509283199999996 Q 1.3716191323242193 3.4192183199999997 1.3716191323242193 3.3661040699999996 Q 1.3716191323242193 3.3114043199999994 1.3399091323242192 3.2816761949999993 Q 1.3081991323242192 3.2519480699999996 1.2400226323242194 3.2519480699999996 L 1.1290376323242193 3.2519480699999996 L 1.1290376323242193 3.4826383199999995 M 1.6077596159912115 3.2503625699999996 L 1.6077596159912115 3.4572703199999992 L 1.8178383659912116 3.4572703199999992 L 1.8178383659912116 3.5032498199999993 L 1.6077596159912115 3.5032498199999993 L 1.6077596159912115 3.7133285699999994 L 1.8416208659912114 3.7133285699999994 L 1.8416208659912114 3.7593080699999994 L 1.5522671159912116 3.7593080699999994 L 1.5522671159912116 3.2043830699999996 L 1.8416208659912114 3.2043830699999996 L 1.8416208659912114 3.2503625699999996 L 1.6077596159912115 3.2503625699999996 M 2.285474236376954 3.6277115699999993 L 2.0333797363769537 3.6277115699999993 L 1.9850219863769538 3.7593080699999994 L 1.9263584863769538 3.7593080699999994 L 2.128509736376954 3.2123105699999996 L 2.1911369863769536 3.2123105699999996 L 2.3924954863769536 3.7593080699999994 L 2.333831986376954 3.7593080699999994 L 2.285474236376954 3.6277115699999993 M 2.2688264863769536 3.5817320699999993 L 2.1594269863769537 3.2820725699999995 L 2.050027486376954 3.5817320699999993 L 2.2688264863769536 3.5817320699999993 M 2.7903589054687505 3.7593080699999994 L 2.5501556554687506 3.5032498199999993 L 2.5501556554687506 3.7593080699999994 L 2.4946631554687504 3.7593080699999994 L 2.4946631554687504 3.2051758199999996 L 2.5501556554687506 3.2051758199999996 L 2.5501556554687506 3.4644050699999993 L 2.7903589054687505 3.2051758199999996 L 2.8609136554687504 3.2051758199999996 L 2.6016844054687507 3.4818455699999995 L 2.8632919054687505 3.7593080699999994 L 2.7903589054687505 3.7593080699999994 M 3.0138297112792976 3.2051758199999996 L 3.0138297112792976 3.7593080699999994 L 2.9583372112792974 3.7593080699999994 L 2.9583372112792974 3.2051758199999996 L 3.0138297112792976 3.2051758199999996 M 3.571056782958985 3.7593080699999994 L 3.515564282958985 3.7593080699999994 L 3.208770032958985 3.2931710699999996 L 3.208770032958985 3.7593080699999994 L 3.153277532958985 3.7593080699999994 L 3.153277532958985 3.2051758199999996 L 3.208770032958985 3.2051758199999996 L 3.515564282958985 3.6705200699999994 L 3.515564282958985 3.2051758199999996 L 3.571056782958985 3.2051758199999996 L 3.571056782958985 3.7593080699999994 M 4.146493492456056 3.3668968199999996 Q 4.122710992456056 3.3121970699999994 4.073956867456055 3.2808834449999993 Q 4.025202742456056 3.2495698199999996 3.9594044924560556 3.2495698199999996 Q 3.897569992456056 3.2495698199999996 3.8484194924560557 3.2781088199999995 Q 3.7992689924560556 3.3066478199999993 3.770729992456056 3.3593656949999993 Q 3.742190992456056 3.4120835699999996 3.742190992456056 3.4818455699999995 Q 3.742190992456056 3.5516075699999994 3.770729992456056 3.6047218199999995 Q 3.7992689924560556 3.6578360699999997 3.8484194924560557 3.6863750699999995 Q 3.897569992456056 3.7149140699999994 3.9594044924560556 3.7149140699999994 Q 4.017275242456056 3.7149140699999994 4.063651117456056 3.6899424449999993 Q 4.1100269924560555 3.6649708199999993 4.138169617456056 3.6185949449999995 Q 4.166312242456056 3.5722190699999996 4.170275992456055 3.5103845699999994 L 3.937207492456056 3.5103845699999994 L 3.937207492456056 3.4651978199999993 L 4.228939492456056 3.4651978199999993 L 4.228939492456056 3.5056280699999993 Q 4.2249757424560554 3.5785610699999992 4.1893019924560555 3.6376209449999997 Q 4.1536282424560556 3.6966808199999996 4.093775617456056 3.7307690699999996 Q 4.033922992456056 3.7648573199999995 3.9594044924560556 3.7648573199999995 Q 3.8825077424560557 3.7648573199999995 3.819880492456056 3.7287871949999993 Q 3.7572532424560556 3.6927170699999996 3.721183117456056 3.6281079449999996 Q 3.6851129924560557 3.5634988199999995 3.6851129924560557 3.4818455699999995 Q 3.6851129924560557 3.4001923199999995 3.721183117456056 3.3355831949999994 Q 3.7572532424560556 3.2709740699999994 3.819880492456056 3.2349039449999992 Q 3.8825077424560557 3.1988338199999995 3.9594044924560556 3.1988338199999995 Q 4.048192492456056 3.1988338199999995 4.114783492456056 3.2432278199999995 Q 4.181374492456055 3.2876218199999996 4.211498992456056 3.3668968199999996 L 4.146493492456056 3.3668968199999996 M 4.912899806103516 3.5206903199999995 Q 4.945402556103517 3.5595350699999995 4.945402556103517 3.6110638199999996 Q 4.945402556103517 3.6530795699999996 4.924394681103516 3.6867714449999993 Q 4.903386806103517 3.7204633199999995 4.862956556103517 3.7398856949999995 Q 4.822526306103517 3.7593080699999994 4.7662410561035164 3.7593080699999994 L 4.574395556103516 3.7593080699999994 L 4.574395556103516 3.2051758199999996 L 4.760691806103516 3.2051758199999996 Q 4.844723306103516 3.2051758199999996 4.888720931103516 3.2440205699999995 Q 4.9327185561035165 3.2828653199999995 4.9327185561035165 3.3446998199999993 Q 4.9327185561035165 3.3962285699999994 4.904972306103517 3.4283349449999996 Q 4.877226056103516 3.4604413199999993 4.833624806103517 3.4731253199999994 Q 4.880397056103516 3.4818455699999995 4.912899806103516 3.5206903199999995 M 4.629888056103517 3.4501355699999996 L 4.759106306103516 3.4501355699999996 Q 4.815391556103516 3.4501355699999996 4.845912431103517 3.4235784449999995 Q 4.876433306103516 3.3970213199999995 4.876433306103516 3.3502490699999994 Q 4.876433306103516 3.3042695699999993 4.845912431103517 3.2781088199999995 Q 4.815391556103516 3.2519480699999996 4.756728056103516 3.2519480699999996 L 4.629888056103517 3.2519480699999996 L 4.629888056103517 3.4501355699999996 M 4.856218181103516 3.6839968199999995 Q 4.889910056103516 3.6554578199999996 4.889910056103516 3.6055145699999995 Q 4.889910056103516 3.5555713199999994 4.854632681103516 3.5258431949999993 Q 4.819355306103517 3.4961150699999997 4.759899056103516 3.4961150699999997 L 4.629888056103517 3.4961150699999997 L 4.629888056103517 3.7125358199999994 L 4.762277306103516 3.7125358199999994 Q 4.822526306103517 3.7125358199999994 4.856218181103516 3.6839968199999995 M 5.382116531469728 3.6277115699999993 L 5.130022031469728 3.6277115699999993 L 5.0816642814697275 3.7593080699999994 L 5.023000781469728 3.7593080699999994 L 5.225152031469728 3.2123105699999996 L 5.287779281469727 3.2123105699999996 L 5.4891377814697275 3.7593080699999994 L 5.430474281469728 3.7593080699999994 L 5.382116531469728 3.6277115699999993 M 5.365468781469727 3.5817320699999993 L 5.256069281469728 3.2820725699999995 L 5.146669781469727 3.5817320699999993 L 5.365468781469727 3.5817320699999993 M 5.886208450561524 3.7593080699999994 L 5.749062700561525 3.5278250699999996 L 5.646797950561525 3.5278250699999996 L 5.646797950561525 3.7593080699999994 L 5.591305450561524 3.7593080699999994 L 5.591305450561524 3.2051758199999996 L 5.757782950561524 3.2051758199999996 Q 5.850534700561525 3.2051758199999996 5.898496075561525 3.2495698199999996 Q 5.946457450561525 3.2939638199999997 5.946457450561525 3.3661040699999996 Q 5.946457450561525 3.4263530699999993 5.9119728255615245 3.4687651949999996 Q 5.877488200561524 3.5111773199999994 5.810104450561525 3.5238613199999995 L 5.952799450561525 3.7593080699999994 L 5.886208450561524 3.7593080699999994 M 5.646797950561525 3.4826383199999995 L 5.758575700561525 3.4826383199999995 Q 5.823581200561525 3.4826383199999995 5.856480325561525 3.4509283199999996 Q 5.889379450561524 3.4192183199999997 5.889379450561524 3.3661040699999996 Q 5.889379450561524 3.3114043199999994 5.8576694505615245 3.2816761949999993 Q 5.825959450561524 3.2519480699999996 5.757782950561524 3.2519480699999996 L 5.646797950561525 3.2519480699999996 L 5.646797950561525 3.4826383199999995 M 6.364930434228517 3.7593080699999994 L 6.227784684228517 3.5278250699999996 L 6.125519934228517 3.5278250699999996 L 6.125519934228517 3.7593080699999994 L 6.070027434228517 3.7593080699999994 L 6.070027434228517 3.2051758199999996 L 6.236504934228517 3.2051758199999996 Q 6.3292566842285165 3.2051758199999996 6.377218059228517 3.2495698199999996 Q 6.425179434228517 3.2939638199999997 6.425179434228517 3.3661040699999996 Q 6.425179434228517 3.4263530699999993 6.390694809228517 3.4687651949999996 Q 6.356210184228517 3.5111773199999994 6.2888264342285165 3.5238613199999995 L 6.431521434228517 3.7593080699999994 L 6.364930434228517 3.7593080699999994 M 6.125519934228517 3.4826383199999995 L 6.237297684228517 3.4826383199999995 Q 6.302303184228517 3.4826383199999995 6.335202309228517 3.4509283199999996 Q 6.368101434228517 3.4192183199999997 6.368101434228517 3.3661040699999996 Q 6.368101434228517 3.3114043199999994 6.336391434228517 3.2816761949999993 Q 6.304681434228517 3.2519480699999996 6.236504934228517 3.2519480699999996 L 6.125519934228517 3.2519480699999996 L 6.125519934228517 3.4826383199999995 M 6.60424191789551 3.2051758199999996 L 6.60424191789551 3.7593080699999994 L 6.548749417895509 3.7593080699999994 L 6.548749417895509 3.2051758199999996 L 6.60424191789551 3.2051758199999996 M 6.799182239575197 3.2503625699999996 L 6.799182239575197 3.4572703199999992 L 7.009260989575196 3.4572703199999992 L 7.009260989575196 3.5032498199999993 L 6.799182239575197 3.5032498199999993 L 6.799182239575197 3.7133285699999994 L 7.0330434895751965 3.7133285699999994 L 7.0330434895751965 3.7593080699999994 L 6.7436897395751965 3.7593080699999994 L 6.7436897395751965 3.2043830699999996 L 7.0330434895751965 3.2043830699999996 L 7.0330434895751965 3.2503625699999996 L 6.799182239575197 3.2503625699999996 M 7.450736109960939 3.7593080699999994 L 7.313590359960939 3.5278250699999996 L 7.211325609960939 3.5278250699999996 L 7.211325609960939 3.7593080699999994 L 7.1558331099609385 3.7593080699999994 L 7.1558331099609385 3.2051758199999996 L 7.3223106099609385 3.2051758199999996 Q 7.415062359960938 3.2051758199999996 7.463023734960939 3.2495698199999996 Q 7.510985109960939 3.2939638199999997 7.510985109960939 3.3661040699999996 Q 7.510985109960939 3.4263530699999993 7.476500484960939 3.4687651949999996 Q 7.4420158599609385 3.5111773199999994 7.374632109960938 3.5238613199999995 L 7.517327109960939 3.7593080699999994 L 7.450736109960939 3.7593080699999994 M 7.211325609960939 3.4826383199999995 L 7.323103359960939 3.4826383199999995 Q 7.388108859960939 3.4826383199999995 7.421007984960939 3.4509283199999996 Q 7.453907109960939 3.4192183199999997 7.453907109960939 3.3661040699999996 Q 7.453907109960939 3.3114043199999994 7.422197109960939 3.2816761949999993 Q 7.390487109960938 3.2519480699999996 7.3223106099609385 3.2519480699999996 L 7.211325609960939 3.2519480699999996 L 7.211325609960939 3.4826383199999995 M 7.706298968627931 3.7458313199999993 Q 7.664679593627931 3.7268053199999995 7.640897093627931 3.6927170699999996 Q 7.617114593627931 3.6586288199999997 7.615529093627931 3.6166130699999997 L 7.674192593627931 3.6166130699999997 Q 7.678156343627931 3.6570433199999997 7.709866343627931 3.6875641949999993 Q 7.741576343627931 3.7180850699999994 7.802618093627931 3.7180850699999994 Q 7.858903343627931 3.7180850699999994 7.891802468627931 3.6891496949999993 Q 7.9247015936279315 3.6602143199999992 7.9247015936279315 3.6158203199999996 Q 7.9247015936279315 3.5801465699999993 7.906468343627931 3.5583459449999992 Q 7.888235093627931 3.5365453199999997 7.861281593627931 3.5258431949999993 Q 7.834328093627931 3.5151410699999994 7.786763093627931 3.5024570699999993 Q 7.731270593627931 3.4873948199999996 7.698767843627931 3.4731253199999994 Q 7.666265093627931 3.4588558199999992 7.6432753436279315 3.4287313199999994 Q 7.620285593627931 3.3986068199999995 7.620285593627931 3.3470780699999994 Q 7.620285593627931 3.3042695699999993 7.642482593627931 3.2705776949999996 Q 7.664679593627931 3.2368858199999995 7.705109843627931 3.2178598199999993 Q 7.745540093627931 3.1988338199999995 7.797861593627931 3.1988338199999995 Q 7.874758343627931 3.1988338199999995 7.921926968627931 3.2364894449999992 Q 7.969095593627931 3.2741450699999994 7.976230343627931 3.3336013199999996 L 7.915981343627931 3.3336013199999996 Q 7.910432093627931 3.2995130699999997 7.878722093627931 3.2729559449999996 Q 7.8470120936279315 3.2463988199999996 7.793105093627931 3.2463988199999996 Q 7.743161843627931 3.2463988199999996 7.709866343627931 3.2729559449999996 Q 7.676570843627931 3.2995130699999997 7.676570843627931 3.3454925699999993 Q 7.676570843627931 3.3803735699999997 7.694804093627931 3.4017778199999995 Q 7.713037343627931 3.4231820699999993 7.740387218627931 3.4342805699999994 Q 7.7677370936279315 3.4453790699999995 7.814509343627931 3.4580630699999997 Q 7.868416343627931 3.4731253199999994 7.901711843627931 3.4877911949999993 Q 7.935007343627931 3.5024570699999993 7.957997093627931 3.5325815699999996 Q 7.980986843627931 3.5627060699999995 7.980986843627931 3.6134420699999996 Q 7.980986843627931 3.6522868199999996 7.960375343627931 3.6871678199999995 Q 7.939763843627931 3.7220488199999995 7.899333593627931 3.7434530699999993 Q 7.858903343627931 3.7648573199999995 7.802618093627931 3.7648573199999995 Q 7.747918343627931 3.7648573199999995 7.706298968627931 3.7458313199999993 M 8.152158600366212 3.6673490699999993 L 8.069712600366213 3.8750495699999994 L 8.031660600366212 3.8750495699999994 L 8.090324100366212 3.6673490699999993 L 8.152158600366212 3.6673490699999993 M 8.821049696484378 3.5206903199999995 Q 8.853552446484377 3.5595350699999995 8.853552446484377 3.6110638199999996 Q 8.853552446484377 3.6530795699999996 8.832544571484378 3.6867714449999993 Q 8.811536696484378 3.7204633199999995 8.771106446484378 3.7398856949999995 Q 8.730676196484378 3.7593080699999994 8.674390946484378 3.7593080699999994 L 8.482545446484378 3.7593080699999994 L 8.482545446484378 3.2051758199999996 L 8.668841696484378 3.2051758199999996 Q 8.752873196484378 3.2051758199999996 8.796870821484378 3.2440205699999995 Q 8.840868446484377 3.2828653199999995 8.840868446484377 3.3446998199999993 Q 8.840868446484377 3.3962285699999994 8.813122196484377 3.4283349449999996 Q 8.785375946484377 3.4604413199999993 8.741774696484377 3.4731253199999994 Q 8.788546946484377 3.4818455699999995 8.821049696484378 3.5206903199999995 M 8.538037946484378 3.4501355699999996 L 8.667256196484377 3.4501355699999996 Q 8.723541446484377 3.4501355699999996 8.754062321484378 3.4235784449999995 Q 8.784583196484377 3.3970213199999995 8.784583196484377 3.3502490699999994 Q 8.784583196484377 3.3042695699999993 8.754062321484378 3.2781088199999995 Q 8.723541446484377 3.2519480699999996 8.664877946484378 3.2519480699999996 L 8.538037946484378 3.2519480699999996 L 8.538037946484378 3.4501355699999996 M 8.764368071484377 3.6839968199999995 Q 8.798059946484377 3.6554578199999996 8.798059946484377 3.6055145699999995 Q 8.798059946484377 3.5555713199999994 8.762782571484378 3.5258431949999993 Q 8.727505196484378 3.4961150699999997 8.668048946484378 3.4961150699999997 L 8.538037946484378 3.4961150699999997 L 8.538037946484378 3.7125358199999994 L 8.670427196484377 3.7125358199999994 Q 8.730676196484378 3.7125358199999994 8.764368071484377 3.6839968199999995 M 9.022316921850589 3.2051758199999996 L 9.022316921850589 3.5539858199999994 Q 9.022316921850589 3.6364318199999994 9.061558046850587 3.6760693199999994 Q 9.100799171850587 3.7157068199999994 9.168975671850587 3.7157068199999994 Q 9.237152171850587 3.7157068199999994 9.275600546850589 3.6764656949999996 Q 9.314048921850588 3.6372245699999994 9.314048921850588 3.5539858199999994 L 9.314048921850588 3.2051758199999996 L 9.369541421850588 3.2051758199999996 L 9.369541421850588 3.5531930699999994 Q 9.369541421850588 3.6586288199999997 9.313652546850587 3.7117430699999994 Q 9.257763671850588 3.7648573199999995 9.168182921850589 3.7648573199999995 Q 9.078602171850587 3.7648573199999995 9.022713296850588 3.7117430699999994 Q 8.966824421850587 3.6586288199999997 8.966824421850587 3.5531930699999994 L 8.966824421850587 3.2051758199999996 L 9.022316921850589 3.2051758199999996 M 9.56210891271973 3.2051758199999996 L 9.56210891271973 3.7593080699999994 L 9.50661641271973 3.7593080699999994 L 9.50661641271973 3.2051758199999996 L 9.56210891271973 3.2051758199999996 M 9.757049234399418 3.7141213199999994 L 9.956029484399417 3.7141213199999994 L 9.956029484399417 3.7593080699999994 L 9.701556734399418 3.7593080699999994 L 9.701556734399418 3.2051758199999996 L 9.757049234399418 3.2051758199999996 L 9.757049234399418 3.7141213199999994 M 10.370574716967777 3.2384713199999995 Q 10.436372966967777 3.2717668199999994 10.471253966967778 3.3343940699999997 Q 10.506134966967778 3.3970213199999995 10.506134966967778 3.4834310699999995 Q 10.506134966967778 3.5690480699999996 10.471253966967778 3.6312789449999996 Q 10.436372966967777 3.6935098199999996 10.370574716967777 3.7264089449999993 Q 10.304776466967777 3.7593080699999994 10.212817466967778 3.7593080699999994 L 10.048718216967778 3.7593080699999994 L 10.048718216967778 3.2051758199999996 L 10.212817466967778 3.2051758199999996 Q 10.304776466967777 3.2051758199999996 10.370574716967777 3.2384713199999995 M 10.389204341967778 3.6526831949999994 Q 10.449849716967778 3.5920378199999994 10.449849716967778 3.4834310699999995 Q 10.449849716967778 3.3740315699999996 10.389204341967778 3.3125934449999996 Q 10.328558966967778 3.2511553199999996 10.212817466967778 3.2511553199999996 L 10.104210716967778 3.2511553199999996 L 10.104210716967778 3.7133285699999994 L 10.212817466967778 3.7133285699999994 Q 10.328558966967778 3.7133285699999994 10.389204341967778 3.6526831949999994 M 10.677284659863286 3.2051758199999996 L 10.677284659863286 3.7593080699999994 L 10.621792159863286 3.7593080699999994 L 10.621792159863286 3.2051758199999996 L 10.677284659863286 3.2051758199999996 M 11.234511731542973 3.7593080699999994 L 11.179019231542974 3.7593080699999994 L 10.872224981542974 3.2931710699999996 L 10.872224981542974 3.7593080699999994 L 10.816732481542974 3.7593080699999994 L 10.816732481542974 3.2051758199999996 L 10.872224981542974 3.2051758199999996 L 11.179019231542974 3.6705200699999994 L 11.179019231542974 3.2051758199999996 L 11.234511731542973 3.2051758199999996 L 11.234511731542973 3.7593080699999994 M 11.809948441040044 3.3668968199999996 Q 11.786165941040045 3.3121970699999994 11.737411816040044 3.2808834449999993 Q 11.688657691040044 3.2495698199999996 11.622859441040045 3.2495698199999996 Q 11.561024941040044 3.2495698199999996 11.511874441040044 3.2781088199999995 Q 11.462723941040045 3.3066478199999993 11.434184941040044 3.3593656949999993 Q 11.405645941040044 3.4120835699999996 11.405645941040044 3.4818455699999995 Q 11.405645941040044 3.5516075699999994 11.434184941040044 3.6047218199999995 Q 11.462723941040045 3.6578360699999997 11.511874441040044 3.6863750699999995 Q 11.561024941040044 3.7149140699999994 11.622859441040045 3.7149140699999994 Q 11.680730191040045 3.7149140699999994 11.727106066040045 3.6899424449999993 Q 11.773481941040044 3.6649708199999993 11.801624566040045 3.6185949449999995 Q 11.829767191040045 3.5722190699999996 11.833730941040045 3.5103845699999994 L 11.600662441040045 3.5103845699999994 L 11.600662441040045 3.4651978199999993 L 11.892394441040045 3.4651978199999993 L 11.892394441040045 3.5056280699999993 Q 11.888430691040044 3.5785610699999992 11.852756941040045 3.6376209449999997 Q 11.817083191040044 3.6966808199999996 11.757230566040045 3.7307690699999996 Q 11.697377941040045 3.7648573199999995 11.622859441040045 3.7648573199999995 Q 11.545962691040044 3.7648573199999995 11.483335441040044 3.7287871949999993 Q 11.420708191040045 3.6927170699999996 11.384638066040045 3.6281079449999996 Q 11.348567941040045 3.5634988199999995 11.348567941040045 3.4818455699999995 Q 11.348567941040045 3.4001923199999995 11.384638066040045 3.3355831949999994 Q 11.420708191040045 3.2709740699999994 11.483335441040044 3.2349039449999992 Q 11.545962691040044 3.1988338199999995 11.622859441040045 3.1988338199999995 Q 11.711647441040045 3.1988338199999995 11.778238441040045 3.2432278199999995 Q 11.844829441040044 3.2876218199999996 11.874953941040044 3.3668968199999996 L 11.809948441040044 3.3668968199999996 M 12.532753504687507 3.7593080699999994 L 12.395607754687507 3.5278250699999996 L 12.293343004687507 3.5278250699999996 L 12.293343004687507 3.7593080699999994 L 12.237850504687508 3.7593080699999994 L 12.237850504687508 3.2051758199999996 L 12.404328004687507 3.2051758199999996 Q 12.497079754687507 3.2051758199999996 12.545041129687506 3.2495698199999996 Q 12.593002504687506 3.2939638199999997 12.593002504687506 3.3661040699999996 Q 12.593002504687506 3.4263530699999993 12.558517879687507 3.4687651949999996 Q 12.524033254687508 3.5111773199999994 12.456649504687507 3.5238613199999995 L 12.599344504687506 3.7593080699999994 L 12.532753504687507 3.7593080699999994 M 12.293343004687507 3.4826383199999995 L 12.405120754687507 3.4826383199999995 Q 12.470126254687507 3.4826383199999995 12.503025379687507 3.4509283199999996 Q 12.535924504687507 3.4192183199999997 12.535924504687507 3.3661040699999996 Q 12.535924504687507 3.3114043199999994 12.504214504687507 3.2816761949999993 Q 12.472504504687507 3.2519480699999996 12.404328004687507 3.2519480699999996 L 12.293343004687507 3.2519480699999996 L 12.293343004687507 3.4826383199999995 M 12.772064988354499 3.2503625699999996 L 12.772064988354499 3.4572703199999992 L 12.982143738354498 3.4572703199999992 L 12.982143738354498 3.5032498199999993 L 12.772064988354499 3.5032498199999993 L 12.772064988354499 3.7133285699999994 L 13.0059262383545 3.7133285699999994 L 13.0059262383545 3.7593080699999994 L 12.7165724883545 3.7593080699999994 L 12.7165724883545 3.2043830699999996 L 13.0059262383545 3.2043830699999996 L 13.0059262383545 3.2503625699999996 L 12.772064988354499 3.2503625699999996 M 13.20045973374024 3.7458313199999993 Q 13.15884035874024 3.7268053199999995 13.135057858740241 3.6927170699999996 Q 13.11127535874024 3.6586288199999997 13.109689858740241 3.6166130699999997 L 13.16835335874024 3.6166130699999997 Q 13.172317108740241 3.6570433199999997 13.20402710874024 3.6875641949999993 Q 13.23573710874024 3.7180850699999994 13.296778858740241 3.7180850699999994 Q 13.35306410874024 3.7180850699999994 13.38596323374024 3.6891496949999993 Q 13.41886235874024 3.6602143199999992 13.41886235874024 3.6158203199999996 Q 13.41886235874024 3.5801465699999993 13.40062910874024 3.5583459449999992 Q 13.38239585874024 3.5365453199999997 13.355442358740241 3.5258431949999993 Q 13.32848885874024 3.5151410699999994 13.280923858740241 3.5024570699999993 Q 13.225431358740241 3.4873948199999996 13.19292860874024 3.4731253199999994 Q 13.16042585874024 3.4588558199999992 13.137436108740241 3.4287313199999994 Q 13.11444635874024 3.3986068199999995 13.11444635874024 3.3470780699999994 Q 13.11444635874024 3.3042695699999993 13.13664335874024 3.2705776949999996 Q 13.15884035874024 3.2368858199999995 13.19927060874024 3.2178598199999993 Q 13.23970085874024 3.1988338199999995 13.29202235874024 3.1988338199999995 Q 13.36891910874024 3.1988338199999995 13.416087733740241 3.2364894449999992 Q 13.46325635874024 3.2741450699999994 13.470391108740241 3.3336013199999996 L 13.41014210874024 3.3336013199999996 Q 13.40459285874024 3.2995130699999997 13.37288285874024 3.2729559449999996 Q 13.34117285874024 3.2463988199999996 13.287265858740241 3.2463988199999996 Q 13.237322608740241 3.2463988199999996 13.20402710874024 3.2729559449999996 Q 13.17073160874024 3.2995130699999997 13.17073160874024 3.3454925699999993 Q 13.17073160874024 3.3803735699999997 13.18896485874024 3.4017778199999995 Q 13.20719810874024 3.4231820699999993 13.23454798374024 3.4342805699999994 Q 13.261897858740241 3.4453790699999995 13.308670108740241 3.4580630699999997 Q 13.36257710874024 3.4731253199999994 13.395872608740241 3.4877911949999993 Q 13.42916810874024 3.5024570699999993 13.452157858740241 3.5325815699999996 Q 13.47514760874024 3.5627060699999995 13.47514760874024 3.6134420699999996 Q 13.47514760874024 3.6522868199999996 13.45453610874024 3.6871678199999995 Q 13.43392460874024 3.7220488199999995 13.39349435874024 3.7434530699999993 Q 13.35306410874024 3.7648573199999995 13.296778858740241 3.7648573199999995 Q 13.24207910874024 3.7648573199999995 13.20045973374024 3.7458313199999993 M 13.651075865478521 3.2051758199999996 L 13.651075865478521 3.7593080699999994 L 13.595583365478522 3.7593080699999994 L 13.595583365478522 3.2051758199999996 L 13.651075865478521 3.2051758199999996 M 13.84601618715821 3.7141213199999994 L 14.04499643715821 3.7141213199999994 L 14.04499643715821 3.7593080699999994 L 13.79052368715821 3.7593080699999994 L 13.79052368715821 3.2051758199999996 L 13.84601618715821 3.2051758199999996 L 13.84601618715821 3.7141213199999994 M 14.19317766972657 3.2051758199999996 L 14.19317766972657 3.7593080699999994 L 14.13768516972657 3.7593080699999994 L 14.13768516972657 3.2051758199999996 L 14.19317766972657 3.2051758199999996 M 14.388117991406258 3.2503625699999996 L 14.388117991406258 3.4572703199999992 L 14.598196741406257 3.4572703199999992 L 14.598196741406257 3.5032498199999993 L 14.388117991406258 3.5032498199999993 L 14.388117991406258 3.7133285699999994 L 14.621979241406258 3.7133285699999994 L 14.621979241406258 3.7593080699999994 L 14.332625491406258 3.7593080699999994 L 14.332625491406258 3.2043830699999996 L 14.621979241406258 3.2043830699999996 L 14.621979241406258 3.2503625699999996 L 14.388117991406258 3.2503625699999996 M 15.162548111791999 3.7593080699999994 L 15.107055611792 3.7593080699999994 L 14.800261361792 3.2931710699999996 L 14.800261361792 3.7593080699999994 L 14.744768861792 3.7593080699999994 L 14.744768861792 3.2051758199999996 L 14.800261361792 3.2051758199999996 L 15.107055611792 3.6705200699999994 L 15.107055611792 3.2051758199999996 L 15.162548111791999 3.2051758199999996 L 15.162548111791999 3.7593080699999994 M 15.31227807128907 3.3355831949999994 Q 15.34795182128907 3.2709740699999994 15.40978632128907 3.2349039449999992 Q 15.47162082128907 3.1988338199999995 15.547724821289071 3.1988338199999995 Q 15.64047657128907 3.1988338199999995 15.70667119628907 3.2428314449999993 Q 15.77286582128907 3.2868290699999996 15.80299032128907 3.3668968199999996 L 15.73798482128907 3.3668968199999996 Q 15.71420232128907 3.3106115699999994 15.66544819628907 3.2789015699999995 Q 15.61669407128907 3.2471915699999996 15.547724821289071 3.2471915699999996 Q 15.48668307128907 3.2471915699999996 15.43792894628907 3.2757305699999995 Q 15.389174821289071 3.3042695699999993 15.36142857128907 3.3577801949999992 Q 15.33368232128907 3.4112908199999996 15.33368232128907 3.4818455699999995 Q 15.33368232128907 3.5524003199999994 15.36142857128907 3.6055145699999995 Q 15.389174821289071 3.6586288199999997 15.43792894628907 3.6871678199999995 Q 15.48668307128907 3.7157068199999994 15.547724821289071 3.7157068199999994 Q 15.61669407128907 3.7157068199999994 15.66544819628907 3.6843931949999993 Q 15.71420232128907 3.6530795699999996 15.73798482128907 3.5975870699999994 L 15.80299032128907 3.5975870699999994 Q 15.77286582128907 3.6768620699999994 15.706274821289071 3.7204633199999995 Q 15.63968382128907 3.7640645699999995 15.547724821289071 3.7640645699999995 Q 15.47162082128907 3.7640645699999995 15.40978632128907 3.7279944449999993 Q 15.34795182128907 3.6919243199999996 15.31227807128907 3.6277115699999993 Q 15.27660432128907 3.5634988199999995 15.27660432128907 3.4818455699999995 Q 15.27660432128907 3.4001923199999995 15.31227807128907 3.3355831949999994 M 15.982069449609384 3.2503625699999996 L 15.982069449609384 3.4572703199999992 L 16.192148199609385 3.4572703199999992 L 16.192148199609385 3.5032498199999993 L 15.982069449609384 3.5032498199999993 L 15.982069449609384 3.7133285699999994 L 16.215930699609384 3.7133285699999994 L 16.215930699609384 3.7593080699999994 L 15.926576949609384 3.7593080699999994 L 15.926576949609384 3.2043830699999996 L 16.215930699609384 3.2043830699999996 L 16.215930699609384 3.2503625699999996 L 15.982069449609384 3.2503625699999996" fill="url(#gradient-309db664-6bac-4312-b290-8eaf388c4049)" fill-rule="nonzero"></path></g><g clip-path="url(&quot;#SvgjsClipPath1002&quot;)"><g clip-path="url(&quot;#b&quot;)"><path d=" M 16.423422498680388 -10.428548839230245 C 16.40194916132353 -12.437932650078722 15.56123546844262 -14.450244643294045 13.636443592636338 -15.304623187220228 C 12.68901392016374 -15.72498003366068 11.641700693622086 -15.882451174277692 10.62920030188626 -15.623469711610046 C 9.824275504600132 -15.417195531545612 9.117607493401477 -14.945107463290894 8.50301454996029 -14.393958471131354 C 8.464622825594986 -14.36142311149974 8.426556454825997 -14.32856239827181 8.38914079124964 -14.29472562425493 C 7.632042972621983 -14.994561209930946 6.744153008275239 -15.56067646752103 5.706275036026753 -15.7132673041933 C 4.558102194627096 -15.882451174277692 3.313299335121548 -15.52944252227468 2.369773905804742 -14.866697246578704 C 0.6990831887213671 -13.692821471070072 0.23512896037455083 -11.524339751623003 0.3890212114320851 -9.598246461431458 C 0.46385253858479614 -8.664481640004137 0.6867197520613506 -7.785376222757927 1.107076598501803 -6.9469400050512355 C 1.5586673901886057 -6.047011957640795 2.1781406375745345 -5.231675845272548 2.841536620463145 -4.4781569162043695 C 4.049899877181287 -3.105815446942893 5.510737524640754 -1.8109081336046575 7.130998434295128 -0.9441661530184629 C 7.558838413450851 -0.7154425748082183 8.049146283099272 -0.47240343836006105 8.546937285462967 -0.5573207269985723 C 9.12997093006149 -0.6568789274713129 9.69543548045894 -1.0157439442080154 10.187695471685258 -1.3238537999193998 C 11.82585082913702 -2.348066921122605 13.320525250613365 -3.69795899223827 14.5227067890015 -5.208250386337788 C 15.120706699030565 -5.959491840231754 15.64615275708113 -6.772550477425787 15.995257165928347 -7.670526403258332 C 16.331022077326608 -8.534665555073996 16.43318310656987 -9.507147454462938 16.423422498680388 -10.428548839230245 M 15.825097235055011 -8.569153036283508 C 15.640621745943758 -7.667923574487801 15.181873175138001 -6.844778975807968 14.663910249802706 -6.09451358270295 C 14.077948422837341 -5.245666049914142 13.372581826023952 -4.479783684185952 12.62589532247841 -3.7705128442167677 C 11.930006777165083 -3.1068478985175165 11.182006259191933 -2.5000698783376993 10.389089347804923 -1.9560158375616297 C 9.84802631713121 -1.5864141521465243 9.263365904551106 -1.2050997372640087 8.631854574101482 -1.0098875794743236 C 8.445101609816016 -0.9519746393300501 8.311706635326399 -0.9386351418810879 8.141872058049376 -0.9770268662463959 C 7.886469484941205 -1.0352651599869809 7.6450571164746295 -1.1504403330828978 7.413080002301221 -1.2691943957382836 C 6.678756935415694 -1.6456285066760614 6.00072004069286 -2.1395152658839613 5.360098809546381 -2.655851423237671 C 3.8000283152104912 -3.9133430729995506 2.311535612064154 -5.447059926033834 1.418439990176349 -7.260255518303678 C 1.0036141548732727 -8.102595979166164 0.8288992736515061 -9.01911705998873 0.7859525989377742 -9.952556527819734 C 0.7407284490498292 -10.935775095887108 0.8666402908241762 -11.952179730778727 1.2684519822746068 -12.857638789326543 C 2.1898533670419136 -14.932744026630882 4.80699769580894 -15.959559976604618 6.854773231022724 -14.900534020595583 C 7.307665437094789 -14.665954077651646 7.711754603719434 -14.351011796417623 8.084935178694046 -14.005160923533566 C 7.786911284468463 -13.703558139748505 7.512312849177641 -13.374625653872888 7.252355325721045 -13.044717107208324 C 6.809874434731096 -13.179413496083205 6.316638382715827 -13.16216975547845 5.851708093580066 -12.990708410219844 C 4.72110434638148 -12.57393045333887 3.858266608951078 -11.5262918732009 3.2602666989220133 -10.521274614180346 C 2.984200709817595 -10.056278508011125 2.7411067143860905 -9.5724823185343 2.53277605755913 -9.073451110573531 C 2.3359371317878637 -8.600386981529859 2.1892026598492844 -8.03297030955451 2.3879937071984436 -7.536806075172397 C 2.5324507039628124 -7.175663583261484 2.879277637635815 -6.779382902948425 3.303538727232062 -6.802157654690555 C 3.6409304066118966 -6.820377456084257 3.8530609514100203 -7.127511251006695 3.809138215907342 -7.4489606041670395 C 3.758708408478341 -7.818562289582174 3.4154603643648143 -8.067132437167704 3.1047476798829003 -8.218747213051024 C 2.8630099578200094 -8.336850568513784 2.65055405942557 -7.975382723006553 2.8932678422774103 -7.856628660351164 C 3.0777433313886626 -7.766831067767908 3.3041894344246945 -7.6474262979198855 3.3822742975405684 -7.442128178644401 C 3.4144843035758647 -7.357210890005888 3.404723695686382 -7.25602592155157 3.309069738369436 -7.2251173299015345 C 3.1698183991461284 -7.180218533609908 3.0266628167670264 -7.3292304807227 2.945324417687993 -7.418702719709639 C 2.7497869063019937 -7.6337614468746064 2.699682452469307 -7.901202103046474 2.718878314651958 -8.18133154947467 C 2.7559686246319988 -8.729552359267366 3.0647291875360168 -9.260529428455303 3.31395004231418 -9.736847093462131 C 3.600261207072383 -10.28474254965851 3.9093471235727137 -10.806609718149598 4.306278511078403 -11.28357809034906 C 4.990497124131246 -12.105746628239944 6.0999528875692794 -13.042114278437793 7.242269364235247 -12.61850389603418 C 8.184818732763102 -12.268748779994331 8.384585840901211 -11.082509567825685 8.379380183360155 -10.208609808120535 C 8.37547594020436 -9.52308978068243 8.240454197733163 -8.8411486428038 8.033203956879781 -8.189465389382573 C 7.851331296539059 -7.6165177062698515 7.653516309978847 -7.019493857029737 7.335971199974296 -6.506085882042866 C 7.185007131283606 -6.262396038402079 6.979383658411805 -6.033997813788147 6.699579565579926 -5.9458269891864735 C 6.514778722872359 -5.887588695445885 6.227491497325208 -5.853751921429007 6.074249953460305 -6.003089222138115 C 6.008853880600763 -6.067183880612394 6.028700449976046 -6.1550293516177526 6.108737434669817 -6.209688755798863 C 6.305901714037398 -6.345035851866378 6.604250961859298 -6.237994518678368 6.800764534034245 -6.162512484333023 C 7.053564278371886 -6.065557112630813 7.16190702594516 -6.470947693640722 6.912360817570681 -6.566601650957669 C 6.546988728907657 -6.706829050969924 6.129885418430366 -6.760187040765773 5.805833236499492 -6.502832346079705 C 5.5881716805639945 -6.330069586435835 5.5624687464550195 -5.98584548153336 5.72579625180572 -5.770786754368393 C 5.966883266675979 -5.453892351556471 6.392771124253806 -5.452590937171205 6.749033312219979 -5.52644620353497 C 7.2087579438146845 -5.6217748072555995 7.531508711360295 -6.011548415642334 7.758930875185276 -6.395791012891696 C 8.002620718826064 -6.807363312231612 8.15553690909465 -7.270992186982111 8.31300804971166 -7.720305503494698 C 8.487397577337111 -8.21744579866576 8.629902452523579 -8.716538215414719 8.712867619584195 -9.237754676713173 C 8.867410577834363 -10.208284454524218 8.867085224238046 -11.31220920682488 8.349773006095383 -12.182530076970552 C 8.180569368480668 -12.470415818218186 7.93895842774528 -12.70899820955717 7.64896135963042 -12.874557176334982 C 7.880734350953029 -13.167829140651202 8.12768979472136 -13.448776252801014 8.388815437653342 -13.716246930004857 C 9.414980680434425 -12.768817257532236 10.214699820179495 -11.61478805139889 10.7671502267243 -10.333545589105931 C 10.93554341986012 -9.940591835050125 11.075692651537876 -9.53612702369151 11.1865310123758 -9.123230210809904 C 11.220367786392684 -8.999270490613444 11.250300317253767 -8.874334709628046 11.276003251362745 -8.748422867853701 C 10.63245383784942 -8.55874172120139 10.172078499062083 -7.93178534110019 10.155810819246275 -7.246590667258399 C 10.13531354267836 -6.3824515154427335 10.88265075341653 -5.706366742297796 11.715881313582164 -5.68652017292251 C 12.580020465397832 -5.666022896354596 13.25610523854277 -6.4133601070927675 13.275951807918052 -7.246590667258399 C 13.263374536776425 -8.102930031716829 12.572220678040575 -8.79408389045267 11.715881313582154 -8.80666116159429 L 11.703192523325834 -8.80666116159429 C 11.68074312518002 -8.942658964854434 11.629662610558388 -9.08646525442617 11.599079372504669 -9.20359254909998 C 11.481117677271687 -9.644264555455214 11.331165516508843 -10.075744014416028 11.150416763184715 -10.494595619282427 C 10.586904334365164 -11.821062231463323 9.753999127795845 -13.022918416255141 8.695623878979443 -14.002558094763037 C 8.744101564830547 -14.047131537458348 8.79290460427797 -14.091054272961028 8.842358350918023 -14.134000947674757 C 8.875869771338586 -14.161981356957945 8.909381191759147 -14.189311059048501 8.943543319372342 -14.215990053946424 C 8.956038856529718 -14.225963837325539 8.967583971621368 -14.237073287696749 8.978030800581854 -14.249176120770672 C 9.693483358881043 -14.842295726854994 10.520857554312986 -15.281197728285466 11.475119652308225 -15.332928950099731 C 12.623617847304198 -15.395396840592431 13.847923430241828 -14.91419887164086 14.664886310591656 -14.109924781547363 C 16.087006880089504 -12.709602903002699 16.202832760378044 -10.412931866607071 15.825097235055011 -8.569153036283508 M 11.715881313582166 -8.3876057295391 C 12.34934476560969 -8.402571994969644 12.842255464028643 -7.8576047211401105 12.856896375862869 -7.246590667258399 C 12.848490881044492 -6.619940140040692 12.342531840799841 -6.113981099796055 11.71588131358215 -6.105575604977698 C 11.082417861554644 -6.090609339547157 10.589507163135691 -6.63557661337669 10.574866251301465 -7.246590667258399 C 10.559899985870922 -7.880054119285924 11.105192613296772 -8.372964817704876 11.715881313582166 -8.3876057295391 M 11.715881313582166 -6.456306781806498 C 12.138840988793149 -6.433857383660683 12.450204380467694 -6.796301289956864 12.499658127107747 -7.184122776765703 C 12.50491948583232 -7.204506327132446 12.50711261524586 -7.2255603695024515 12.506165199034069 -7.246590667258399 C 12.507053281649405 -7.267278019999946 12.504971540364505 -7.28798586751817 12.499983480704064 -7.30808249696215 C 12.451180441256641 -7.722257625072597 12.141443817563676 -8.013774447371858 11.715881313582166 -8.036549199113988 C 11.270146886629057 -8.060625365241382 10.948046826276077 -7.656861552213051 10.92592278172658 -7.246590667258399 C 10.901846615599185 -6.80085624030529 11.305285075031199 -6.478430826355995 11.715881313582166 -6.456306781806498 M 12.086784413382565 -7.246590667258399 C 12.061081479273591 -6.768320880673675 11.370681147890743 -6.768320880673675 11.344978213781767 -7.246590667258399 C 11.319275279672794 -7.725185807439441 12.061081479273593 -7.722582978668912 12.086784413382565 -7.246590667258399" fill="url(#gradient-bb27337e-2084-458c-9a2f-eb1a9fa1fcbd_0)" transform="matrix(1,0,0,1,0,0)" fill-rule="nonzero"></path></g></g></g><defs><linearGradient id="gradient-309db664-6bac-4312-b290-8eaf388c4049" x1="0" y1="0" x2="1" y2="1"><stop stop-color="#c08c46" offset="0"></stop><stop stop-color="#3f170e" offset="1"></stop></linearGradient><clipPath id="SvgjsClipPath1002"><path d=" M 0.36131958731490776 -15.755328394995477 h 16.06273157732331 v 15.215328394995478 h -16.06273157732331 Z"></path></clipPath><clipPath id="b"><path d=" M 0.03601255942907439 -16.08091686803054 L 16.749426802189163 -16.08091686803054 L 16.749426802189163 -0.21472339007767793 L 0.03601255942907439 -0.21472339007767793 Z"></path></clipPath><linearGradient id="gradient-bb27337e-2084-458c-9a2f-eb1a9fa1fcbd_0" x1="0" x2="1" y1="0" y2="1"><stop stop-color="#f2c37c" offset="0"></stop><stop stop-color="#a5497e" offset="1"></stop></linearGradient></defs></svg>